<svg xmlns="http://www.w3.org/2000/svg" xmlns:xlink="http://www.w3.org/1999/xlink" width="500" zoomAndPan="magnify" viewBox="0 0 375 374.999991" height="500" preserveAspectRatio="xMidYMid meet" version="1.0"><defs><clipPath id="3ea387f7e6"><path d="M 116.058594 103.664062 L 259.308594 103.664062 L 259.308594 206.414062 L 116.058594 206.414062 Z M 116.058594 103.664062 " clip-rule="nonzero"/></clipPath><clipPath id="ad0f653f80"><path d="M 116.058594 114 L 259.308594 114 L 259.308594 216.707031 L 116.058594 216.707031 Z M 116.058594 114 " clip-rule="nonzero"/></clipPath></defs><rect x="-37.5" width="450" fill="#ffffff" y="-37.499999" height="449.999989" fill-opacity="1"/><rect x="-37.5" width="450" fill="#ffffff" y="-37.499999" height="449.999989" fill-opacity="1"/><rect x="-37.5" width="450" fill="#ffffff" y="-37.499999" height="449.999989" fill-opacity="1"/><g clip-path="url(#3ea387f7e6)"><path fill="#d9d9d9" d="M 226.824219 159.074219 L 231.375 159.074219 C 246.699219 159.074219 259.164062 146.699219 259.164062 131.5 C 259.164062 116.304688 246.699219 103.929688 231.375 103.929688 L 186.625 103.929688 C 186.09375 103.929688 185.59375 104.226562 185.351562 104.699219 C 185.109375 105.167969 185.152344 105.738281 185.449219 106.179688 L 221.257812 156.222656 L 186.625 156.222656 C 185.835938 156.222656 185.195312 156.863281 185.195312 157.648438 L 185.195312 200.175781 L 118.664062 104.542969 C 118.304688 104.027344 117.660156 103.8125 117.058594 104 C 116.460938 104.183594 116.058594 104.742188 116.058594 105.367188 L 116.058594 204.753906 C 116.058594 205.539062 116.703125 206.179688 117.488281 206.179688 C 118.277344 206.179688 118.921875 205.539062 118.921875 204.753906 L 118.921875 109.902344 L 185.4375 205.539062 C 185.707031 205.921875 186.152344 206.152344 186.609375 206.152344 C 186.753906 206.152344 186.894531 206.121094 187.039062 206.09375 C 187.640625 205.910156 188.042969 205.351562 188.042969 204.726562 L 188.042969 159.074219 L 223.304688 159.074219 L 256.5625 205.566406 C 256.847656 205.949219 257.277344 206.164062 257.734375 206.164062 C 258.019531 206.164062 258.308594 206.078125 258.5625 205.894531 C 259.207031 205.4375 259.351562 204.539062 258.894531 203.914062 Z M 189.402344 106.78125 L 231.375 106.78125 C 245.125 106.78125 256.304688 117.871094 256.304688 131.5 C 256.304688 145.128906 245.113281 156.222656 231.375 156.222656 L 224.792969 156.222656 Z M 189.402344 106.78125 " fill-opacity="1" fill-rule="nonzero"/></g><g clip-path="url(#ad0f653f80)"><path fill="#d9d9d9" d="M 226.824219 169.367188 L 231.375 169.367188 C 246.699219 169.367188 259.164062 156.992188 259.164062 141.796875 C 259.164062 126.597656 246.699219 114.222656 231.375 114.222656 L 186.625 114.222656 C 186.09375 114.222656 185.59375 114.519531 185.351562 114.992188 C 185.109375 115.460938 185.152344 116.03125 185.449219 116.476562 L 221.257812 166.515625 L 186.625 166.515625 C 185.835938 166.515625 185.195312 167.15625 185.195312 167.941406 L 185.195312 210.472656 L 118.664062 114.835938 C 118.304688 114.320312 117.660156 114.109375 117.058594 114.292969 C 116.460938 114.480469 116.058594 115.035156 116.058594 115.660156 L 116.058594 215.046875 C 116.058594 215.832031 116.703125 216.472656 117.488281 216.472656 C 118.277344 216.472656 118.921875 215.832031 118.921875 215.046875 L 118.921875 120.195312 L 185.4375 215.832031 C 185.707031 216.214844 186.152344 216.445312 186.609375 216.445312 C 186.753906 216.445312 186.894531 216.414062 187.039062 216.386719 C 187.640625 216.203125 188.042969 215.644531 188.042969 215.019531 L 188.042969 169.367188 L 223.304688 169.367188 L 256.5625 215.859375 C 256.847656 216.246094 257.277344 216.457031 257.734375 216.457031 C 258.019531 216.457031 258.308594 216.375 258.5625 216.1875 C 259.207031 215.730469 259.351562 214.832031 258.894531 214.207031 Z M 189.402344 117.074219 L 231.375 117.074219 C 245.125 117.074219 256.304688 128.164062 256.304688 141.796875 C 256.304688 155.425781 245.113281 166.515625 231.375 166.515625 L 224.792969 166.515625 Z M 189.402344 117.074219 " fill-opacity="1" fill-rule="nonzero"/></g></svg>