<svg xmlns="http://www.w3.org/2000/svg" xmlns:xlink="http://www.w3.org/1999/xlink" width="500" zoomAndPan="magnify" viewBox="0 0 375 374.999991" height="500" preserveAspectRatio="xMidYMid meet" version="1.0"><defs><g/><clipPath id="73288f7be1"><path d="M 47.496094 48.179688 L 327.503906 48.179688 L 327.503906 328.183594 L 47.496094 328.183594 Z M 47.496094 48.179688 " clip-rule="nonzero"/></clipPath><clipPath id="4297d61962"><path d="M 187.5 48.179688 C 110.179688 48.179688 47.496094 110.863281 47.496094 188.183594 C 47.496094 265.503906 110.179688 328.183594 187.5 328.183594 C 264.820312 328.183594 327.503906 265.503906 327.503906 188.183594 C 327.503906 110.863281 264.820312 48.179688 187.5 48.179688 " clip-rule="nonzero"/></clipPath><clipPath id="f7cae6a34e"><path d="M 37.5 38.183594 L 337.5 38.183594 L 337.5 338.183594 L 37.5 338.183594 Z M 37.5 38.183594 " clip-rule="nonzero"/></clipPath><clipPath id="142ea103f7"><path d="M 43.394531 167.214844 L 332.675781 167.214844 L 332.675781 209.148438 L 43.394531 209.148438 Z M 43.394531 167.214844 " clip-rule="nonzero"/></clipPath></defs><rect x="-37.5" width="450" fill="#ffffff" y="-37.499999" height="449.999989" fill-opacity="1"/><rect x="-37.5" width="450" fill="#ffffff" y="-37.499999" height="449.999989" fill-opacity="1"/><rect x="-37.5" width="450" fill="#ffffff" y="-37.499999" height="449.999989" fill-opacity="1"/><g clip-path="url(#73288f7be1)"><g clip-path="url(#4297d61962)"><path fill="#000000" d="M 47.496094 48.179688 L 327.503906 48.179688 L 327.503906 328.183594 L 47.496094 328.183594 Z M 47.496094 48.179688 " fill-opacity="1" fill-rule="nonzero"/></g></g><g clip-path="url(#f7cae6a34e)"><path fill="#000000" d="M 187.5 338.183594 C 104.816406 338.183594 37.5 270.867188 37.5 188.183594 C 37.5 105.496094 104.816406 38.183594 187.5 38.183594 C 270.183594 38.183594 337.5 105.496094 337.5 188.183594 C 337.5 270.867188 270.183594 338.183594 187.5 338.183594 Z M 187.5 40.398438 C 105.996094 40.398438 39.714844 106.679688 39.714844 188.183594 C 39.714844 269.683594 105.996094 335.964844 187.5 335.964844 C 269.003906 335.964844 335.285156 269.683594 335.285156 188.183594 C 335.285156 106.679688 269.003906 40.398438 187.5 40.398438 Z M 187.5 40.398438 " fill-opacity="1" fill-rule="nonzero"/></g><g fill="#a6a6a6" fill-opacity="1"><g transform="translate(110.827875, 277.106055)"><g><path d="M 7.0625 0 L 7.0625 -2.515625 L 14.875 -2.515625 C 20.425781 -2.515625 24.039062 -3.734375 25.71875 -6.171875 C 27.40625 -8.609375 28.25 -13.863281 28.25 -21.9375 L 28.25 -158.609375 C 28.25 -166.515625 27.488281 -171.644531 25.96875 -174 C 24.457031 -176.351562 21.015625 -177.53125 15.640625 -177.53125 L 7.0625 -177.53125 L 7.0625 -180.046875 L 47.65625 -180.046875 L 123.8125 -23.453125 L 123.8125 -158.609375 C 123.8125 -166.515625 123.054688 -171.644531 121.546875 -174 C 120.035156 -176.351562 116.671875 -177.53125 111.453125 -177.53125 L 100.109375 -177.53125 L 100.109375 -180.046875 L 148.53125 -180.046875 L 148.53125 -177.53125 L 138.6875 -177.53125 C 133.3125 -177.53125 129.910156 -176.3125 128.484375 -173.875 C 127.054688 -171.4375 126.34375 -166.179688 126.34375 -158.109375 L 126.34375 0 L 112.96875 0 L 30.765625 -168.953125 L 30.765625 -21.9375 C 30.765625 -13.863281 31.519531 -8.609375 33.03125 -6.171875 C 34.539062 -3.734375 37.90625 -2.515625 43.125 -2.515625 L 54.46875 -2.515625 L 54.46875 0 Z M 7.0625 0 "/></g></g></g><g clip-path="url(#142ea103f7)"><path fill="#ffffff" d="M 43.394531 167.214844 L 332.714844 167.214844 L 332.714844 209.242188 L 43.394531 209.242188 Z M 43.394531 167.214844 " fill-opacity="1" fill-rule="nonzero"/></g><g fill="#000000" fill-opacity="1"><g transform="translate(101.779015, 193.103034)"><g><path d="M 14.796875 -11.359375 L 11.765625 -11.359375 L 7.671875 -2.109375 L 3.28125 -11.359375 L 0.5625 -11.359375 L 0.5625 -10.875 L 2.078125 -10.875 L 2.078125 -0.5 L 0.5625 -0.5 L 0.5625 0 L 4.359375 0 C 4.359375 -0.28125 4.253906 -0.4375 4.046875 -0.46875 C 3.984375 -0.488281 3.921875 -0.5 3.859375 -0.5 L 2.84375 -0.5 L 2.84375 -8.640625 L 6.984375 0.09375 L 7.390625 0.09375 L 11.765625 -9.65625 L 11.765625 -0.5 L 10.25 -0.5 L 10.25 0 L 14.796875 0 C 14.796875 -0.28125 14.691406 -0.4375 14.484375 -0.46875 C 14.421875 -0.488281 14.359375 -0.5 14.296875 -0.5 L 13.28125 -0.5 L 13.28125 -10.875 L 14.796875 -10.875 Z M 14.796875 -11.359375 "/></g></g></g><g fill="#000000" fill-opacity="1"><g transform="translate(121.213547, 193.103034)"><g><path d="M 7.625 0 C 7.625 -0.28125 7.523438 -0.4375 7.328125 -0.46875 C 7.265625 -0.488281 7.203125 -0.5 7.140625 -0.5 L 6.109375 -0.5 L 6.109375 -4.71875 L 8.96875 -10.34375 C 9.257812 -10.675781 9.601562 -10.851562 10 -10.875 C 10.28125 -10.875 10.4375 -10.972656 10.46875 -11.171875 C 10.476562 -11.234375 10.484375 -11.296875 10.484375 -11.359375 L 7.125 -11.359375 L 7.125 -10.875 L 8.640625 -10.875 L 5.75 -5.359375 L 2.75 -10.875 L 4.1875 -10.875 L 4.1875 -11.359375 L -0.09375 -11.359375 L -0.09375 -10.875 L 0.953125 -10.875 L 4.5 -4.53125 L 4.5 -0.5 L 2.984375 -0.5 L 2.984375 0 Z M 7.625 0 "/></g></g></g><g fill="#000000" fill-opacity="1"><g transform="translate(135.780732, 193.103034)"><g/></g></g><g fill="#000000" fill-opacity="1"><g transform="translate(143.54878, 193.103034)"><g><path d="M 5.96875 -10.875 C 7.09375 -10.875 7.816406 -10.367188 8.140625 -9.359375 C 8.242188 -9.023438 8.296875 -8.671875 8.296875 -8.296875 C 8.296875 -6.648438 7.5625 -5.75 6.09375 -5.59375 C 5.945312 -5.570312 5.796875 -5.5625 5.640625 -5.5625 L 3.90625 -5.5625 L 3.90625 -10.875 Z M 5.796875 0 C 5.796875 -0.28125 5.691406 -0.4375 5.484375 -0.46875 C 5.421875 -0.488281 5.359375 -0.5 5.296875 -0.5 L 3.90625 -0.5 L 3.90625 -5.015625 L 5.5625 -5.015625 C 7.632812 -5.015625 9.003906 -5.601562 9.671875 -6.78125 C 9.941406 -7.21875 10.078125 -7.726562 10.078125 -8.3125 C 10.078125 -9.5625 9.535156 -10.4375 8.453125 -10.9375 C 7.867188 -11.21875 7.171875 -11.359375 6.359375 -11.359375 L 0.75 -11.359375 L 0.75 -10.875 L 2.265625 -10.875 L 2.265625 -0.5 L 0.75 -0.5 L 0.75 0 Z M 5.796875 0 "/></g></g></g><g fill="#000000" fill-opacity="1"><g transform="translate(158.267477, 193.103034)"><g><path d="M 6.71875 -11.546875 C 5.207031 -11.546875 3.910156 -11.050781 2.828125 -10.0625 C 1.640625 -8.957031 1.046875 -7.519531 1.046875 -5.75 C 1.046875 -3.707031 1.742188 -2.128906 3.140625 -1.015625 C 4.160156 -0.210938 5.335938 0.1875 6.671875 0.1875 C 8.160156 0.1875 9.441406 -0.316406 10.515625 -1.328125 C 11.710938 -2.453125 12.3125 -3.90625 12.3125 -5.6875 C 12.3125 -7.769531 11.582031 -9.351562 10.125 -10.4375 C 9.144531 -11.175781 8.007812 -11.546875 6.71875 -11.546875 Z M 6.71875 -0.34375 C 4.894531 -0.34375 3.722656 -1.320312 3.203125 -3.28125 C 3.023438 -3.96875 2.9375 -4.769531 2.9375 -5.6875 C 2.9375 -8.6875 3.84375 -10.425781 5.65625 -10.90625 C 5.976562 -10.976562 6.316406 -11.015625 6.671875 -11.015625 C 9.148438 -10.992188 10.398438 -9.238281 10.421875 -5.75 C 10.421875 -3 9.65625 -1.289062 8.125 -0.625 C 7.695312 -0.4375 7.226562 -0.34375 6.71875 -0.34375 Z M 6.71875 -0.34375 "/></g></g></g><g fill="#000000" fill-opacity="1"><g transform="translate(175.694461, 193.103034)"><g><path d="M 5.390625 0 L 5.390625 -0.5 L 3.90625 -0.5 L 3.90625 -5.203125 L 5.703125 -5.203125 L 8.734375 0 L 11.59375 0 C 11.59375 -0.28125 11.515625 -0.4375 11.359375 -0.46875 C 11.296875 -0.488281 11.222656 -0.5 11.140625 -0.5 L 10.421875 -0.5 L 7.359375 -5.375 C 8.566406 -5.664062 9.390625 -6.289062 9.828125 -7.25 C 9.992188 -7.632812 10.078125 -8.019531 10.078125 -8.40625 C 10.078125 -9.351562 9.664062 -10.113281 8.84375 -10.6875 C 8.175781 -11.132812 7.347656 -11.359375 6.359375 -11.359375 L 0.75 -11.359375 L 0.75 -10.875 L 2.265625 -10.875 L 2.265625 -0.5 L 0.75 -0.5 L 0.75 0 Z M 5.796875 -10.875 C 6.878906 -10.875 7.628906 -10.429688 8.046875 -9.546875 C 8.210938 -9.179688 8.296875 -8.796875 8.296875 -8.390625 C 8.296875 -7.484375 7.976562 -6.773438 7.34375 -6.265625 C 6.914062 -5.921875 6.414062 -5.75 5.84375 -5.75 L 3.90625 -5.75 L 3.90625 -10.875 Z M 5.796875 -10.875 "/></g></g></g><g fill="#000000" fill-opacity="1"><g transform="translate(191.360109, 193.103034)"><g><path d="M 7.984375 0 C 7.984375 -0.28125 7.882812 -0.4375 7.6875 -0.46875 C 7.625 -0.488281 7.5625 -0.5 7.5 -0.5 L 6.21875 -0.5 L 6.21875 -10.875 L 7.3125 -10.875 C 8.332031 -10.875 9.015625 -10.253906 9.359375 -9.015625 C 9.359375 -8.960938 9.363281 -8.925781 9.375 -8.90625 L 9.671875 -7.625 L 10.203125 -7.625 L 10.109375 -11.359375 L 0.75 -11.359375 L 0.65625 -7.625 L 1.1875 -7.625 L 1.5 -8.90625 C 1.90625 -10.132812 2.59375 -10.789062 3.5625 -10.875 L 4.578125 -10.875 L 4.578125 -0.5 L 2.78125 -0.5 L 2.78125 0 Z M 7.984375 0 "/></g></g></g><g fill="#000000" fill-opacity="1"><g transform="translate(206.306071, 193.103034)"><g><path d="M 6.171875 0 L 6.171875 -0.5 L 3.90625 -0.5 L 3.90625 -5.59375 L 7.796875 -5.59375 L 7.796875 -6.140625 L 3.90625 -6.140625 L 3.90625 -10.875 L 6.9375 -10.875 C 7.84375 -10.875 8.488281 -10.257812 8.875 -9.03125 C 8.90625 -8.957031 8.925781 -8.894531 8.9375 -8.84375 L 9.203125 -7.953125 L 9.578125 -7.953125 L 9.484375 -11.359375 L 0.75 -11.359375 L 0.75 -10.875 L 2.265625 -10.875 L 2.265625 -0.5 L 0.75 -0.5 L 0.75 0 Z M 6.171875 0 "/></g></g></g><g fill="#000000" fill-opacity="1"><g transform="translate(220.153566, 193.103034)"><g><path d="M 0.1875 -10.875 L 1.703125 -10.875 L 1.703125 -4.265625 C 1.722656 -1.304688 3.191406 0.175781 6.109375 0.1875 C 8.335938 0.1875 9.6875 -0.71875 10.15625 -2.53125 C 10.289062 -3.09375 10.359375 -3.726562 10.359375 -4.4375 L 10.359375 -10.875 L 11.875 -10.875 L 11.875 -11.359375 L 8.1875 -11.359375 L 8.1875 -10.875 L 9.703125 -10.875 L 9.703125 -4.3125 C 9.703125 -1.863281 8.789062 -0.546875 6.96875 -0.359375 C 6.8125 -0.347656 6.660156 -0.34375 6.515625 -0.34375 C 4.972656 -0.34375 4 -0.992188 3.59375 -2.296875 C 3.414062 -2.859375 3.328125 -3.550781 3.328125 -4.375 L 3.328125 -10.875 L 4.828125 -10.875 L 4.828125 -11.359375 L 0.1875 -11.359375 Z M 0.1875 -10.875 "/></g></g></g><g fill="#000000" fill-opacity="1"><g transform="translate(236.197996, 193.103034)"><g><path d="M 9.046875 0 L 9.140625 -3.78125 L 8.765625 -3.78125 L 8.453125 -2.515625 C 8.140625 -1.359375 7.632812 -0.695312 6.9375 -0.53125 C 6.78125 -0.507812 6.632812 -0.5 6.5 -0.5 L 3.90625 -0.5 L 3.90625 -10.875 L 5.484375 -10.875 L 5.484375 -11.359375 L 0.75 -11.359375 L 0.75 -10.875 L 2.265625 -10.875 L 2.265625 -0.5 L 0.75 -0.5 L 0.75 0 Z M 9.046875 0 "/></g></g></g><g fill="#000000" fill-opacity="1"><g transform="translate(249.609892, 193.103034)"><g><path d="M 5.390625 0 C 5.390625 -0.28125 5.289062 -0.4375 5.09375 -0.46875 C 5.03125 -0.488281 4.96875 -0.5 4.90625 -0.5 L 3.90625 -0.5 L 3.90625 -10.875 L 5.390625 -10.875 L 5.390625 -11.359375 L 0.75 -11.359375 L 0.75 -10.875 L 2.265625 -10.875 L 2.265625 -0.5 L 0.75 -0.5 L 0.75 0 Z M 5.390625 0 "/></g></g></g><g fill="#000000" fill-opacity="1"><g transform="translate(259.840018, 193.103034)"><g><path d="M 6.71875 -11.546875 C 5.207031 -11.546875 3.910156 -11.050781 2.828125 -10.0625 C 1.640625 -8.957031 1.046875 -7.519531 1.046875 -5.75 C 1.046875 -3.707031 1.742188 -2.128906 3.140625 -1.015625 C 4.160156 -0.210938 5.335938 0.1875 6.671875 0.1875 C 8.160156 0.1875 9.441406 -0.316406 10.515625 -1.328125 C 11.710938 -2.453125 12.3125 -3.90625 12.3125 -5.6875 C 12.3125 -7.769531 11.582031 -9.351562 10.125 -10.4375 C 9.144531 -11.175781 8.007812 -11.546875 6.71875 -11.546875 Z M 6.71875 -0.34375 C 4.894531 -0.34375 3.722656 -1.320312 3.203125 -3.28125 C 3.023438 -3.96875 2.9375 -4.769531 2.9375 -5.6875 C 2.9375 -8.6875 3.84375 -10.425781 5.65625 -10.90625 C 5.976562 -10.976562 6.316406 -11.015625 6.671875 -11.015625 C 9.148438 -10.992188 10.398438 -9.238281 10.421875 -5.75 C 10.421875 -3 9.65625 -1.289062 8.125 -0.625 C 7.695312 -0.4375 7.226562 -0.34375 6.71875 -0.34375 Z M 6.71875 -0.34375 "/></g></g></g></svg>